# xmcd CD database file
# Copyright (C) 1993-1998 Ti Kan
#
# Track frame offsets:
#  150
#  4025
#  12387
#  33377
#  41322
#  56600
#  73470
#  88470
#  105440
#  120927
#  135837
#  148972
#  174407
#  187642
#  204270
#
# Disc length: 2902 seconds
#
# Revision: 1
# Processed by: cddbd v1.4b41PL1 Copyright (c) Steve Scherf et al.
# Submitted via: KiC 2.1 - (C) 1996-1998 Alwin Hoogerdijk
#
DISCID=c10b540f
DTITLE=IIIrd Tyme Out - Live at the MAC
DYEAR=1900
DGENRE=
TTITLE0=Introduction
TTITLE1=White House Blues
TTITLE2=Blue Moon of Kentucky
TTITLE3=Little Rabbit
TTITLE4=What Was I Supposed to Do?
TTITLE5=He Said If I Be Lifted Up
TTITLE6=It's a Lonesome Road
TTITLE7=Till the End
TTITLE8=Someone Took My Place with You
TTITLE9=Lord Protect My Soul
TTITLE10=I Ain't Broke (But I'm Badly Bent)
TTITLE11=Erase the Miles
TTITLE12=Till the End of the World Rolls Around
TTITLE13=Tennessee Waltz
TTITLE14=I'm Better Off Without You
EXTD=
EXTT0=
EXTT1=
EXTT2=
EXTT3=
EXTT4=
EXTT5=
EXTT6=
EXTT7=
EXTT8=
EXTT9=
EXTT10=
EXTT11=
EXTT12=
EXTT13=
EXTT14=
PLAYORDER=
